<svg height="23px" id="svg" version="1.1" xmlns="http://www.w3.org/2000/svg" xmlns:xlink="http://www.w3.org/1999/xlink" viewBox="0, 0, 400,400"><g id="svgg"><path id="path0" d="M197.655 9.496 C 197.621 9.524,196.843 9.640,195.926 9.753 C 192.119 10.221,189.752 10.847,187.933 11.869 C 187.234 12.262,186.621 12.553,186.571 12.516 C 185.783 11.931,176.553 19.476,174.630 22.279 C 173.800 23.488,173.305 24.306,172.872 25.185 C 172.621 25.694,172.204 26.333,171.945 26.604 C 171.686 26.875,171.569 27.250,171.685 27.437 C 171.801 27.625,171.742 27.778,171.554 27.778 C 171.252 27.778,169.862 31.440,169.796 32.407 C 169.782 32.611,169.660 33.111,169.525 33.519 C 168.569 36.398,168.571 36.304,168.543 93.023 C 168.516 149.162,168.646 145.670,166.646 143.957 C 166.245 143.614,165.803 143.333,165.664 143.333 C 165.524 143.333,164.791 142.904,164.034 142.379 C 163.276 141.855,162.379 141.385,162.040 141.335 C 161.700 141.285,161.311 141.077,161.174 140.873 C 161.038 140.669,160.676 140.392,160.370 140.259 C 160.065 140.125,159.148 139.597,158.333 139.086 C 157.519 138.574,156.519 137.997,156.111 137.804 C 155.704 137.610,154.870 137.109,154.259 136.691 C 153.648 136.273,152.856 135.930,152.500 135.928 C 152.144 135.927,151.852 135.771,151.852 135.583 C 151.852 135.394,151.394 135.003,150.833 134.714 C 148.179 133.343,145.314 131.699,144.785 131.244 C 144.463 130.966,144.088 130.851,143.951 130.987 C 143.815 131.123,143.704 131.051,143.704 130.827 C 143.704 130.459,142.239 129.771,141.893 129.977 C 141.814 130.025,141.648 129.916,141.523 129.735 C 141.257 129.351,137.510 127.037,137.153 127.037 C 137.020 127.037,136.611 126.766,136.245 126.435 C 135.879 126.104,134.533 125.275,133.253 124.593 C 131.973 123.912,130.093 122.911,129.074 122.369 C 128.056 121.827,127.139 121.263,127.037 121.115 C 126.935 120.967,125.685 120.221,124.259 119.458 C 122.833 118.694,121.467 117.908,121.224 117.710 C 120.694 117.280,118.001 115.781,116.574 115.122 C 116.014 114.864,115.556 114.522,115.556 114.363 C 115.556 114.204,115.343 114.074,115.084 114.074 C 114.825 114.074,113.742 113.500,112.677 112.799 C 111.612 112.098,110.741 111.618,110.741 111.732 C 110.741 111.846,110.147 111.487,109.422 110.934 C 108.696 110.381,107.856 109.892,107.554 109.847 C 107.252 109.803,106.677 109.486,106.276 109.143 C 105.875 108.799,105.450 108.519,105.331 108.519 C 105.212 108.519,104.630 108.174,104.039 107.753 C 103.447 107.331,102.963 107.096,102.963 107.230 C 102.963 107.364,102.450 107.042,101.823 106.514 C 101.197 105.987,100.467 105.556,100.202 105.556 C 99.937 105.556,99.514 105.307,99.263 105.004 C 99.011 104.701,98.657 104.544,98.477 104.656 C 98.296 104.767,98.148 104.701,98.148 104.509 C 98.148 104.318,97.856 104.060,97.500 103.937 C 97.144 103.815,96.310 103.378,95.648 102.968 C 92.734 101.162,91.982 100.720,91.111 100.302 C 90.602 100.057,89.908 99.626,89.570 99.345 C 89.231 99.063,88.706 98.797,88.403 98.752 C 88.100 98.708,87.584 98.448,87.255 98.175 C 86.493 97.543,84.648 96.501,82.870 95.699 C 82.106 95.355,81.481 94.931,81.481 94.759 C 81.481 94.586,81.299 94.444,81.076 94.444 C 80.853 94.444,80.228 94.133,79.687 93.752 C 79.146 93.372,78.287 92.932,77.778 92.776 C 77.269 92.620,76.759 92.350,76.647 92.175 C 76.333 91.691,71.120 89.951,70.721 90.198 C 70.528 90.317,70.370 90.248,70.370 90.045 C 70.370 89.842,70.079 89.672,69.722 89.668 C 69.366 89.664,68.574 89.553,67.963 89.421 C 67.352 89.289,65.019 89.182,62.778 89.184 C 56.516 89.189,57.016 89.117,53.148 90.578 C 52.741 90.732,52.222 90.829,51.995 90.795 C 49.669 90.439,35.969 100.794,36.859 102.234 C 36.981 102.431,36.904 102.593,36.689 102.593 C 36.473 102.593,36.296 102.757,36.296 102.959 C 36.296 103.160,36.005 103.666,35.648 104.082 C 35.292 104.498,35.056 104.940,35.124 105.063 C 35.193 105.187,35.056 105.406,34.822 105.551 C 34.587 105.696,34.357 106.073,34.311 106.389 C 34.265 106.704,34.029 107.201,33.787 107.492 C 33.546 107.783,33.298 108.341,33.237 108.733 C 33.177 109.124,33.004 109.642,32.853 109.883 C 32.074 111.131,31.360 116.375,31.375 120.741 C 31.391 125.271,31.720 127.434,32.816 130.214 C 33.304 131.452,33.704 132.754,33.704 133.106 C 33.704 133.497,33.871 133.644,34.131 133.483 C 34.391 133.323,34.459 133.381,34.304 133.631 C 34.048 134.046,34.600 135.277,35.463 136.216 C 35.718 136.493,35.926 136.963,35.926 137.260 C 35.926 137.558,36.176 137.897,36.481 138.014 C 36.787 138.131,37.037 138.461,37.037 138.746 C 37.037 139.312,42.187 144.547,43.918 145.741 C 45.923 147.123,51.946 150.741,52.244 150.741 C 52.406 150.741,52.767 150.968,53.046 151.247 C 53.494 151.695,56.230 153.275,59.952 155.234 C 60.638 155.596,61.485 156.149,61.834 156.465 C 62.182 156.780,62.579 156.927,62.715 156.791 C 62.851 156.655,62.963 156.765,62.963 157.037 C 62.963 157.309,63.076 157.418,63.213 157.281 C 63.351 157.143,63.851 157.394,64.324 157.839 C 64.798 158.284,65.185 158.537,65.185 158.402 C 65.185 158.266,65.524 158.445,65.938 158.800 C 66.352 159.154,66.778 159.390,66.885 159.324 C 66.992 159.258,67.612 159.601,68.262 160.088 C 68.912 160.574,70.028 161.207,70.741 161.495 C 71.454 161.783,72.397 162.331,72.837 162.714 C 73.277 163.096,73.759 163.378,73.907 163.340 C 74.055 163.301,74.278 163.409,74.403 163.579 C 74.700 163.985,75.882 164.719,77.029 165.209 C 77.535 165.425,78.035 165.720,78.141 165.864 C 78.247 166.008,78.750 166.332,79.259 166.585 C 79.769 166.837,80.727 167.375,81.389 167.781 C 82.051 168.187,83.134 168.850,83.796 169.256 C 84.458 169.662,85.417 170.194,85.926 170.439 C 86.435 170.684,87.144 171.128,87.500 171.425 C 87.856 171.723,88.148 171.849,88.148 171.705 C 88.148 171.561,88.690 171.828,89.352 172.297 C 90.939 173.422,91.771 173.922,93.333 174.693 C 94.046 175.044,94.713 175.425,94.815 175.538 C 94.917 175.652,95.958 176.237,97.130 176.839 C 98.301 177.442,99.259 178.066,99.259 178.226 C 99.259 178.387,99.442 178.519,99.665 178.519 C 99.888 178.519,100.532 178.847,101.096 179.248 C 101.659 179.650,102.192 179.906,102.280 179.819 C 102.368 179.731,102.916 180.069,103.499 180.570 C 104.083 181.072,104.867 181.481,105.243 181.481 C 105.619 181.481,105.926 181.652,105.926 181.861 C 105.926 182.070,106.333 182.395,106.830 182.584 C 107.328 182.774,109.091 183.769,110.749 184.798 C 112.406 185.826,113.824 186.667,113.900 186.667 C 113.975 186.667,114.778 187.167,115.683 187.778 C 116.589 188.389,117.443 188.889,117.582 188.889 C 117.930 188.889,123.000 191.861,123.796 192.532 C 124.153 192.832,124.444 192.957,124.444 192.809 C 124.444 192.661,124.706 192.802,125.026 193.122 C 125.347 193.442,125.847 193.704,126.138 193.704 C 126.429 193.704,126.667 193.844,126.667 194.015 C 126.667 194.313,128.012 195.061,128.632 195.107 C 128.797 195.120,129.463 195.523,130.114 196.003 C 131.294 196.876,132.855 197.661,133.477 197.696 C 133.658 197.706,133.908 197.874,134.033 198.070 C 134.157 198.265,134.875 198.840,135.627 199.348 L 136.994 200.271 135.071 201.270 C 132.730 202.486,131.726 203.075,131.481 203.376 C 131.380 203.502,130.546 203.979,129.630 204.438 C 128.713 204.896,127.663 205.535,127.297 205.857 C 126.931 206.180,126.387 206.479,126.088 206.523 C 125.789 206.567,124.780 207.075,123.846 207.653 C 122.911 208.231,121.539 209.040,120.796 209.451 C 118.946 210.474,117.268 211.585,116.996 211.968 C 116.871 212.142,116.704 212.247,116.625 212.200 C 116.280 211.993,114.815 212.681,114.815 213.050 C 114.815 213.274,114.703 213.345,114.567 213.209 C 114.431 213.073,114.056 213.188,113.734 213.466 C 113.412 213.743,112.231 214.466,111.111 215.071 C 107.689 216.920,107.233 217.205,106.926 217.685 C 106.763 217.940,106.337 218.148,105.979 218.148 C 105.622 218.148,104.764 218.565,104.074 219.074 C 103.384 219.583,102.627 220.000,102.393 220.000 C 102.158 220.000,101.669 220.329,101.304 220.732 C 100.940 221.135,100.517 221.387,100.364 221.293 C 100.212 221.198,99.692 221.417,99.210 221.779 C 98.728 222.141,97.917 222.637,97.407 222.882 C 96.217 223.455,95.054 224.187,94.802 224.523 C 94.693 224.668,94.026 225.057,93.320 225.389 C 90.914 226.518,90.370 226.842,90.370 227.147 C 90.370 227.314,90.223 227.360,90.042 227.248 C 89.861 227.137,89.508 227.293,89.256 227.597 C 89.004 227.900,88.581 228.148,88.316 228.148 C 88.051 228.148,87.322 228.580,86.695 229.107 C 86.068 229.634,85.556 229.956,85.556 229.823 C 85.556 229.689,85.071 229.924,84.480 230.345 C 83.888 230.766,83.298 231.111,83.168 231.111 C 83.038 231.111,82.580 231.439,82.151 231.839 C 81.721 232.239,81.228 232.480,81.055 232.373 C 80.882 232.266,80.741 232.383,80.741 232.632 C 80.741 232.882,80.637 232.983,80.510 232.856 C 80.383 232.729,79.743 233.033,79.088 233.533 C 78.433 234.032,77.787 234.331,77.653 234.196 C 77.518 234.061,77.407 234.103,77.406 234.290 C 77.405 234.477,76.447 235.130,75.276 235.741 C 74.106 236.352,73.065 236.939,72.963 237.045 C 72.861 237.151,72.361 237.446,71.852 237.702 C 71.343 237.958,69.843 238.827,68.519 239.634 C 67.194 240.441,65.444 241.439,64.630 241.853 C 62.931 242.716,61.749 243.422,61.481 243.735 C 61.380 243.853,60.255 244.502,58.981 245.175 C 57.708 245.849,56.667 246.571,56.667 246.780 C 56.667 246.989,56.562 247.056,56.435 246.928 C 56.204 246.698,54.059 247.647,53.704 248.136 C 53.602 248.277,52.602 248.876,51.481 249.468 C 50.361 250.061,48.577 251.089,47.518 251.754 C 46.458 252.419,45.441 252.963,45.258 252.963 C 45.075 252.963,44.401 253.463,43.762 254.074 C 43.123 254.685,42.473 255.185,42.319 255.185 C 41.839 255.185,36.667 260.833,36.667 261.357 C 36.667 261.629,36.512 261.852,36.323 261.852 C 36.135 261.852,35.742 262.310,35.450 262.870 C 33.436 266.744,32.963 267.761,32.963 268.220 C 32.963 268.507,32.821 268.899,32.647 269.093 C 32.359 269.414,31.767 271.368,31.252 273.704 C 30.959 275.031,30.788 282.709,31.042 283.137 C 31.159 283.334,31.293 284.108,31.340 284.857 C 31.387 285.606,31.688 286.992,32.009 287.937 C 32.330 288.882,32.593 289.832,32.593 290.048 C 32.593 290.264,32.959 290.955,33.406 291.584 C 33.854 292.212,34.032 292.610,33.803 292.469 C 33.216 292.106,35.086 295.565,36.023 296.574 C 36.448 297.032,36.685 297.407,36.550 297.407 C 36.414 297.407,36.594 297.776,36.948 298.226 C 37.898 299.434,42.963 304.563,42.963 304.318 C 42.963 304.202,43.338 304.480,43.796 304.936 C 44.506 305.641,46.290 306.605,51.481 309.086 C 52.572 309.607,53.984 309.975,57.778 310.725 C 59.600 311.085,66.260 311.141,66.847 310.801 C 67.048 310.684,67.798 310.536,68.513 310.470 C 69.229 310.405,70.023 310.328,70.278 310.299 C 70.532 310.270,70.741 310.080,70.741 309.877 C 70.741 309.673,70.837 309.603,70.955 309.720 C 71.254 310.019,76.419 308.175,76.753 307.651 C 76.903 307.415,77.028 307.368,77.031 307.545 C 77.034 307.723,77.245 307.697,77.500 307.488 C 77.755 307.279,78.963 306.568,80.185 305.909 C 81.407 305.250,82.671 304.484,82.992 304.207 C 83.314 303.930,83.754 303.704,83.971 303.704 C 84.188 303.704,84.461 303.454,84.578 303.148 C 84.696 302.843,85.093 302.593,85.462 302.593 C 85.830 302.593,86.544 302.302,87.047 301.948 C 88.275 301.083,89.961 300.136,91.204 299.615 C 91.764 299.379,92.222 299.036,92.222 298.853 C 92.222 298.669,92.472 298.519,92.778 298.519 C 93.083 298.519,93.333 298.324,93.333 298.086 C 93.333 297.849,93.437 297.758,93.563 297.884 C 93.689 298.010,94.693 297.538,95.793 296.835 C 96.892 296.131,97.918 295.556,98.071 295.556 C 98.225 295.556,99.236 294.972,100.319 294.259 C 101.401 293.546,102.439 292.963,102.625 292.963 C 102.811 292.963,102.963 292.831,102.963 292.669 C 102.963 292.508,104.126 291.820,105.548 291.141 C 107.009 290.443,108.031 289.740,107.899 289.525 C 107.769 289.316,107.836 289.252,108.047 289.382 C 108.259 289.513,108.826 289.312,109.308 288.936 C 110.443 288.052,112.699 286.863,113.056 286.961 C 113.208 287.003,113.333 286.882,113.333 286.692 C 113.333 286.502,113.684 286.235,114.112 286.099 C 114.834 285.870,117.065 284.521,117.991 283.754 C 118.211 283.573,118.770 283.303,119.235 283.156 C 119.699 283.009,120.400 282.613,120.792 282.277 C 121.185 281.941,121.606 281.723,121.730 281.791 C 121.853 281.859,122.056 281.756,122.181 281.562 C 122.305 281.367,123.241 280.766,124.259 280.227 C 125.278 279.687,126.944 278.747,127.963 278.138 C 128.981 277.529,130.315 276.776,130.926 276.465 C 131.537 276.154,132.954 275.322,134.074 274.615 C 135.194 273.909,136.819 272.994,137.685 272.582 C 138.551 272.170,139.259 271.699,139.259 271.534 C 139.259 271.369,139.468 271.229,139.722 271.223 C 139.977 271.216,141.307 270.521,142.678 269.679 C 144.050 268.837,145.341 268.148,145.549 268.148 C 145.756 268.148,145.926 267.998,145.926 267.814 C 145.926 267.630,146.384 267.297,146.944 267.074 C 147.505 266.850,148.630 266.247,149.444 265.733 C 150.259 265.219,151.343 264.603,151.852 264.365 C 152.361 264.127,153.153 263.602,153.611 263.198 C 154.069 262.794,154.444 262.584,154.444 262.731 C 154.444 262.878,155.153 262.521,156.019 261.938 C 156.884 261.354,158.211 260.591,158.966 260.243 C 159.721 259.895,160.430 259.462,160.542 259.281 C 160.654 259.101,161.494 258.590,162.409 258.147 C 163.325 257.704,164.074 257.162,164.074 256.942 C 164.074 256.723,164.181 256.650,164.311 256.780 C 164.571 257.040,166.506 256.055,167.401 255.208 C 168.187 254.463,168.142 251.653,168.286 309.630 C 168.356 338.046,168.496 361.963,168.597 362.778 C 168.875 365.030,169.306 367.180,169.563 367.593 C 169.690 367.796,169.842 368.278,169.902 368.663 C 169.962 369.048,170.367 370.131,170.801 371.070 C 171.236 372.009,171.636 372.994,171.691 373.259 C 171.747 373.524,172.007 374.000,172.270 374.317 C 172.534 374.634,172.922 375.186,173.134 375.542 C 174.328 377.553,175.611 379.259,175.931 379.259 C 176.132 379.259,176.300 379.468,176.305 379.722 C 176.309 379.977,176.999 380.769,177.837 381.481 C 178.675 382.194,179.754 383.193,180.236 383.700 C 180.717 384.207,181.114 384.457,181.117 384.255 C 181.120 384.019,181.219 384.021,181.395 384.261 C 182.088 385.210,186.379 387.817,187.037 387.689 C 187.139 387.669,187.639 387.884,188.148 388.167 C 192.783 390.743,203.231 391.377,208.652 389.412 C 209.495 389.107,210.574 388.775,211.050 388.675 C 211.526 388.575,212.740 388.040,213.749 387.487 C 214.758 386.934,215.910 386.317,216.310 386.116 C 216.710 385.915,217.037 385.623,217.037 385.468 C 217.037 385.312,217.292 385.185,217.604 385.185 C 217.916 385.185,218.267 384.936,218.384 384.632 C 218.501 384.327,218.730 384.161,218.895 384.263 C 219.560 384.674,225.145 378.465,227.143 375.094 C 229.002 371.956,229.963 369.869,229.591 369.779 C 229.511 369.760,229.630 369.510,229.856 369.224 C 230.260 368.713,230.729 367.207,230.939 365.741 C 230.997 365.333,231.219 364.250,231.430 363.333 C 231.806 361.709,231.853 352.546,231.852 282.130 C 231.852 267.106,231.987 254.815,232.152 254.815 C 232.318 254.815,232.776 255.112,233.171 255.475 C 233.566 255.837,234.806 256.606,235.926 257.183 C 237.046 257.759,238.213 258.451,238.519 258.719 C 238.825 258.988,239.492 259.383,240.001 259.597 C 240.510 259.812,241.593 260.402,242.407 260.909 C 243.222 261.416,244.401 262.065,245.026 262.350 C 245.651 262.636,246.901 263.343,247.804 263.922 C 249.829 265.222,251.087 265.968,253.704 267.421 C 256.241 268.831,257.327 269.452,260.306 271.204 C 261.605 271.968,262.751 272.593,262.851 272.593 C 262.952 272.593,263.518 272.937,264.109 273.359 C 264.701 273.780,265.185 274.021,265.185 273.895 C 265.185 273.769,265.727 274.078,266.389 274.582 C 267.051 275.085,268.426 275.934,269.444 276.467 C 270.463 277.001,271.963 277.831,272.778 278.312 C 273.593 278.793,274.410 279.094,274.594 278.981 C 274.779 278.867,274.829 278.937,274.707 279.135 C 274.493 279.480,278.408 281.691,278.981 281.550 C 279.134 281.512,279.259 281.639,279.259 281.832 C 279.259 282.024,279.662 282.399,280.153 282.665 C 280.645 282.931,282.020 283.666,283.209 284.300 C 284.398 284.933,286.019 285.891,286.811 286.429 C 287.603 286.967,288.458 287.407,288.710 287.407 C 288.962 287.407,289.375 287.656,289.626 287.959 C 289.878 288.262,290.206 288.435,290.356 288.342 C 290.506 288.249,290.945 288.460,291.333 288.809 C 291.720 289.159,292.537 289.694,293.148 289.999 C 293.759 290.305,294.343 290.641,294.444 290.748 C 294.546 290.854,295.046 291.154,295.556 291.414 C 296.065 291.675,297.101 292.255,297.858 292.703 C 298.615 293.152,300.282 294.080,301.562 294.765 C 302.842 295.451,303.972 296.126,304.074 296.266 C 304.176 296.405,305.176 296.991,306.296 297.568 C 307.417 298.145,308.731 298.928,309.217 299.309 C 309.702 299.689,310.316 300.000,310.579 300.000 C 310.843 300.000,311.278 300.215,311.548 300.477 C 311.817 300.740,312.733 301.314,313.584 301.754 C 315.882 302.940,316.767 303.467,317.326 303.981 C 317.603 304.235,318.235 304.545,318.730 304.669 C 319.225 304.793,319.630 305.023,319.630 305.180 C 319.630 305.337,320.171 305.685,320.833 305.953 C 321.495 306.220,322.137 306.585,322.259 306.763 C 322.382 306.941,322.715 307.133,323.000 307.189 C 323.285 307.246,324.333 307.655,325.328 308.099 C 326.323 308.542,327.531 308.938,328.013 308.978 C 328.495 309.018,328.889 309.168,328.889 309.311 C 328.889 310.598,343.252 310.862,345.578 309.618 C 345.919 309.435,346.304 309.391,346.433 309.519 C 346.561 309.648,346.667 309.564,346.667 309.333 C 346.667 309.101,346.917 309.008,347.222 309.125 C 347.528 309.243,347.778 309.170,347.778 308.963 C 347.778 308.757,348.137 308.682,348.576 308.797 C 349.171 308.952,349.298 308.882,349.075 308.520 C 348.890 308.220,348.920 308.123,349.153 308.268 C 349.575 308.529,353.862 306.561,354.702 305.721 C 354.997 305.426,355.400 305.185,355.598 305.185 C 356.225 305.185,362.037 299.772,362.037 299.188 C 362.037 299.031,362.412 298.640,362.870 298.319 C 363.329 297.998,363.704 297.495,363.704 297.201 C 363.704 296.907,363.870 296.667,364.074 296.667 C 364.278 296.667,364.444 296.333,364.444 295.926 C 364.444 295.519,364.595 295.185,364.779 295.185 C 364.962 295.185,365.303 294.727,365.535 294.167 C 365.768 293.606,366.287 292.519,366.690 291.751 C 367.320 290.546,368.136 287.996,368.730 285.370 C 369.464 282.125,369.448 274.426,368.702 272.063 C 368.601 271.743,368.410 271.190,368.278 270.833 C 368.145 270.477,367.977 269.852,367.903 269.444 C 367.830 269.037,367.271 267.683,366.663 266.436 C 366.054 265.189,365.556 263.980,365.556 263.751 C 365.556 263.521,365.389 263.333,365.185 263.333 C 364.981 263.333,364.815 263.115,364.815 262.848 C 364.815 262.580,364.481 262.004,364.074 261.567 C 363.667 261.130,363.333 260.670,363.333 260.546 C 363.333 260.012,361.368 257.804,361.061 257.994 C 360.875 258.109,360.766 258.066,360.820 257.898 C 361.116 256.968,354.781 252.142,350.370 249.937 C 349.861 249.682,349.050 249.178,348.568 248.816 C 348.085 248.454,347.566 248.235,347.413 248.330 C 347.261 248.424,346.838 248.172,346.474 247.769 C 346.109 247.366,345.619 247.037,345.385 247.037 C 345.151 247.037,344.394 246.620,343.704 246.111 C 343.013 245.602,342.156 245.185,341.798 245.185 C 341.441 245.185,341.015 244.977,340.852 244.722 C 340.557 244.261,340.290 244.091,337.066 242.312 C 336.134 241.797,334.912 241.055,334.352 240.663 C 333.792 240.270,333.331 240.086,333.328 240.253 C 333.325 240.419,333.200 240.372,333.050 240.149 C 332.780 239.746,331.328 238.884,326.667 236.362 C 325.343 235.646,324.176 234.945,324.074 234.804 C 323.747 234.352,321.482 233.304,321.476 233.602 C 321.473 233.760,321.348 233.703,321.198 233.476 C 321.048 233.249,319.926 232.507,318.704 231.828 C 317.481 231.149,316.398 230.502,316.296 230.389 C 316.017 230.081,314.801 229.359,313.148 228.520 C 312.333 228.106,310.583 227.107,309.259 226.301 C 307.935 225.494,306.435 224.624,305.926 224.369 C 305.417 224.113,304.917 223.817,304.815 223.711 C 304.713 223.605,303.672 223.019,302.501 222.407 C 301.331 221.796,300.372 221.171,300.372 221.019 C 300.371 220.866,300.153 220.741,299.887 220.741 C 299.621 220.741,298.846 220.330,298.165 219.827 C 297.484 219.325,296.810 218.986,296.667 219.074 C 296.525 219.162,296.092 218.944,295.704 218.591 C 295.317 218.237,294.042 217.451,292.871 216.844 C 291.700 216.237,290.742 215.616,290.742 215.463 C 290.741 215.310,290.513 215.185,290.235 215.185 C 289.957 215.185,289.313 214.857,288.803 214.457 C 288.294 214.056,287.771 213.834,287.642 213.963 C 287.513 214.092,287.407 214.023,287.407 213.809 C 287.407 213.595,287.116 213.322,286.759 213.202 C 286.126 212.989,285.689 212.734,283.613 211.364 C 283.052 210.993,282.593 210.800,282.593 210.934 C 282.593 211.067,282.080 210.745,281.453 210.218 C 280.826 209.691,280.097 209.259,279.832 209.259 C 279.567 209.259,279.144 209.011,278.892 208.708 C 278.641 208.404,278.287 208.248,278.106 208.359 C 277.926 208.471,277.778 208.425,277.778 208.258 C 277.778 208.090,277.403 207.762,276.944 207.528 C 274.841 206.453,273.808 205.874,272.778 205.190 C 272.167 204.784,271.250 204.252,270.741 204.006 C 270.231 203.761,269.538 203.330,269.199 203.049 C 268.861 202.767,268.336 202.500,268.033 202.456 C 267.730 202.411,267.193 202.132,266.839 201.836 C 266.485 201.539,265.524 201.030,264.703 200.705 L 263.211 200.114 264.384 199.422 C 265.028 199.041,265.556 198.571,265.556 198.377 C 265.556 198.183,265.667 198.136,265.803 198.272 C 266.029 198.498,269.529 196.720,270.511 195.881 C 271.034 195.434,277.348 191.852,277.613 191.852 C 277.720 191.852,278.160 191.524,278.590 191.124 C 279.020 190.724,279.488 190.468,279.630 190.556 C 279.773 190.644,280.447 190.305,281.128 189.803 C 281.809 189.300,282.558 188.889,282.792 188.889 C 283.027 188.889,283.521 188.555,283.891 188.146 C 284.261 187.737,284.643 187.482,284.740 187.579 C 284.837 187.676,285.353 187.469,285.886 187.119 C 287.528 186.039,288.290 185.588,289.444 185.013 C 290.938 184.269,291.985 183.591,292.285 183.174 C 292.422 182.985,292.797 182.791,293.119 182.744 C 293.442 182.697,294.747 182.014,296.019 181.227 C 297.292 180.441,298.789 179.566,299.346 179.284 C 299.902 179.001,300.694 178.457,301.105 178.074 C 301.516 177.692,301.852 177.484,301.852 177.614 C 301.852 177.852,305.679 175.788,306.437 175.140 C 306.960 174.693,313.274 171.111,313.538 171.111 C 313.646 171.111,314.086 170.784,314.516 170.383 C 314.946 169.983,315.414 169.727,315.556 169.815 C 315.699 169.903,316.373 169.564,317.054 169.062 C 317.735 168.559,318.424 168.148,318.586 168.148 C 318.748 168.148,319.221 167.856,319.637 167.500 C 320.054 167.144,320.514 166.846,320.660 166.839 C 320.910 166.826,321.817 166.341,323.519 165.309 C 323.926 165.061,324.759 164.603,325.370 164.289 C 326.909 163.499,327.918 162.840,328.211 162.433 C 328.348 162.244,328.723 162.050,329.045 162.003 C 329.368 161.956,330.673 161.273,331.945 160.487 C 333.218 159.700,334.715 158.825,335.272 158.543 C 335.828 158.261,336.620 157.717,337.031 157.334 C 337.442 156.951,337.778 156.744,337.778 156.873 C 337.778 157.112,341.605 155.047,342.363 154.400 C 342.863 153.973,349.194 150.370,349.445 150.370 C 349.542 150.370,349.949 150.090,350.350 149.746 C 350.751 149.403,351.326 149.086,351.628 149.042 C 351.930 148.997,352.745 148.528,353.438 147.999 C 354.132 147.470,354.874 147.037,355.088 147.037 C 355.302 147.037,355.572 146.787,355.689 146.481 C 355.807 146.176,356.125 145.926,356.396 145.926 C 357.075 145.926,362.825 140.231,363.537 138.854 C 363.854 138.240,364.444 137.408,364.848 137.004 C 365.252 136.600,365.483 136.109,365.362 135.912 C 365.241 135.716,365.322 135.556,365.543 135.556 C 365.867 135.556,366.410 134.635,366.853 133.333 C 366.887 133.231,367.053 132.815,367.220 132.407 C 369.200 127.589,369.360 126.695,369.341 120.556 C 369.322 114.566,369.080 112.529,368.107 110.171 C 367.858 109.568,367.636 108.991,367.614 108.889 C 367.409 107.962,365.033 103.582,364.367 102.903 C 363.899 102.427,363.201 101.548,362.816 100.949 C 362.430 100.351,361.604 99.434,360.981 98.912 C 360.358 98.390,359.438 97.505,358.937 96.944 C 358.436 96.384,357.793 95.926,357.510 95.926 C 357.226 95.926,357.076 95.792,357.177 95.628 C 357.279 95.464,356.583 94.922,355.632 94.424 C 354.680 93.926,353.673 93.305,353.394 93.043 C 352.308 92.028,348.706 90.571,346.400 90.215 C 346.151 90.176,345.831 90.029,345.690 89.887 C 345.548 89.746,344.886 89.630,344.219 89.630 C 343.552 89.630,342.912 89.477,342.797 89.291 C 342.538 88.871,332.153 89.029,331.450 89.464 C 331.169 89.638,330.686 89.805,330.377 89.835 C 327.640 90.107,318.859 94.411,317.736 96.032 C 317.612 96.212,317.445 96.330,317.366 96.294 C 317.167 96.202,315.042 97.155,314.815 97.438 C 314.713 97.565,314.027 97.951,313.291 98.297 C 312.554 98.643,311.558 99.293,311.077 99.741 C 310.596 100.189,310.157 100.513,310.101 100.461 C 309.885 100.262,306.667 101.951,306.667 102.263 C 306.667 102.444,306.542 102.554,306.389 102.508 C 306.002 102.389,303.704 103.799,303.704 104.154 C 303.704 104.314,303.451 104.444,303.143 104.444 C 302.462 104.444,301.225 105.114,300.063 106.111 C 299.588 106.519,299.124 106.801,299.032 106.740 C 298.940 106.678,297.890 107.220,296.699 107.943 C 295.508 108.667,294.378 109.259,294.188 109.259 C 293.998 109.259,293.479 109.599,293.033 110.014 C 292.587 110.430,292.222 110.683,292.222 110.578 C 292.222 110.473,291.196 111.050,289.943 111.860 C 288.689 112.670,287.470 113.333,287.235 113.333 C 286.999 113.333,286.442 113.673,285.996 114.089 C 285.550 114.504,285.185 114.757,285.185 114.652 C 285.185 114.547,284.159 115.124,282.906 115.934 C 281.652 116.744,280.433 117.407,280.198 117.407 C 279.962 117.407,279.367 117.782,278.875 118.241 C 278.383 118.699,277.929 119.024,277.867 118.962 C 277.805 118.900,276.779 119.442,275.588 120.166 C 274.396 120.889,273.261 121.481,273.065 121.481 C 272.868 121.481,272.405 121.816,272.035 122.224 C 271.665 122.633,271.283 122.888,271.186 122.791 C 271.089 122.694,270.548 122.943,269.985 123.344 C 269.421 123.746,268.777 124.074,268.554 124.074 C 268.331 124.074,268.148 124.221,268.148 124.400 C 268.148 124.579,267.606 124.942,266.944 125.207 C 265.880 125.634,263.376 127.059,261.275 128.433 C 260.879 128.692,260.056 129.160,259.444 129.474 C 257.971 130.230,257.064 130.770,255.733 131.682 C 255.126 132.098,253.966 132.765,253.154 133.164 C 252.342 133.563,251.455 134.097,251.183 134.352 C 250.911 134.606,250.522 134.815,250.319 134.815 C 250.116 134.815,249.420 135.213,248.772 135.700 C 248.123 136.187,246.843 136.943,245.926 137.380 C 245.009 137.816,243.816 138.460,243.273 138.809 C 241.987 139.638,238.488 141.655,237.778 141.978 C 237.472 142.117,236.722 142.557,236.111 142.957 C 234.336 144.117,232.163 145.249,232.008 145.095 C 231.930 145.016,231.811 121.046,231.744 91.828 C 231.629 41.861,231.525 35.044,230.859 33.966 C 230.712 33.727,230.556 33.279,230.514 32.969 C 230.296 31.382,229.870 30.263,228.290 27.130 C 227.339 25.245,226.418 23.704,226.244 23.704 C 226.069 23.704,225.926 23.459,225.926 23.161 C 225.926 22.862,225.426 22.107,224.815 21.481 C 224.204 20.856,223.704 20.174,223.704 19.965 C 223.704 19.757,223.537 19.689,223.333 19.815 C 223.130 19.941,222.963 19.845,222.963 19.603 C 222.963 19.025,220.593 16.801,219.223 16.092 C 218.632 15.787,218.148 15.400,218.148 15.232 C 218.148 14.899,213.303 12.236,210.741 11.162 C 209.156 10.497,204.813 9.551,204.282 9.755 C 204.004 9.862,203.663 9.835,203.524 9.697 C 203.321 9.494,197.883 9.308,197.655 9.496 " stroke="none" fill="#0cc4dc" fill-rule="evenodd"></path><path id="path1" d="M199.357 9.525 C 199.920 9.610,200.753 9.608,201.209 9.520 C 201.664 9.432,201.204 9.362,200.185 9.365 C 199.167 9.368,198.794 9.440,199.357 9.525 M359.286 97.315 C 359.301 97.468,359.926 98.084,360.675 98.684 L 362.037 99.775 360.761 98.406 C 359.442 96.991,359.241 96.842,359.286 97.315 M336.759 310.636 C 337.319 310.721,338.236 310.721,338.796 310.636 C 339.356 310.551,338.898 310.481,337.778 310.481 C 336.657 310.481,336.199 310.551,336.759 310.636 M198.981 390.636 C 199.542 390.721,200.458 390.721,201.019 390.636 C 201.579 390.551,201.120 390.481,200.000 390.481 C 198.880 390.481,198.421 390.551,198.981 390.636 " stroke="none" fill="#0cbcdc" fill-rule="evenodd"></path></g></svg>